<mxfile host="65bd71144e">
    <diagram id="mEzSfYppKcivNNCRlda4" name="Página-1">
        <mxGraphModel dx="1064" dy="1679" grid="1" gridSize="10" guides="1" tooltips="1" connect="1" arrows="1" fold="1" page="1" pageScale="1" pageWidth="827" pageHeight="1169" background="#F5F5F5" math="0" shadow="0">
            <root>
                <mxCell id="0"/>
                <mxCell id="1" parent="0"/>
                <mxCell id="54" value="" style="rounded=0;whiteSpace=wrap;html=1;fontSize=14;strokeColor=#171717;fillColor=#F5F5F5;" parent="1" vertex="1">
                    <mxGeometry x="710" y="-260" width="1080" height="790" as="geometry"/>
                </mxCell>
                <mxCell id="81" value="" style="rounded=0;whiteSpace=wrap;html=1;fillColor=#cce5ff;labelBackgroundColor=#FFFFFF;labelBorderColor=#F0F0F0;strokeColor=#36393d;" parent="1" vertex="1">
                    <mxGeometry x="1020" y="-180" width="690" height="670" as="geometry"/>
                </mxCell>
                <mxCell id="82" value="Usuário" style="shape=umlActor;verticalLabelPosition=bottom;verticalAlign=top;html=1;outlineConnect=0;fillColor=#FFFFFF;strokeColor=#0F0F0F;fontSize=14;" parent="1" vertex="1">
                    <mxGeometry x="821" y="120" width="63" height="105" as="geometry"/>
                </mxCell>
                <mxCell id="84" value="" style="endArrow=none;html=1;entryX=0;entryY=0.5;entryDx=0;entryDy=0;strokeColor=#050505;" parent="1" source="82" target="102" edge="1">
                    <mxGeometry width="50" height="50" relative="1" as="geometry">
                        <mxPoint x="1163" y="30" as="sourcePoint"/>
                        <mxPoint x="1133" y="15" as="targetPoint"/>
                    </mxGeometry>
                </mxCell>
                <mxCell id="85" value="criar combinado" style="ellipse;whiteSpace=wrap;html=1;fontColor=#0F0F0F;fillColor=#FCFCFC;strokeColor=#000000;" parent="1" vertex="1">
                    <mxGeometry x="1133" y="370" width="140" height="50" as="geometry"/>
                </mxCell>
                <mxCell id="88" value="" style="endArrow=classic;html=1;exitX=0;exitY=0.5;exitDx=0;exitDy=0;entryX=1;entryY=0;entryDx=0;entryDy=0;strokeColor=#080808;" parent="1" source="138" target="85" edge="1">
                    <mxGeometry relative="1" as="geometry">
                        <mxPoint x="1470" y="235" as="sourcePoint"/>
                        <mxPoint x="1293" y="70" as="targetPoint"/>
                    </mxGeometry>
                </mxCell>
                <mxCell id="89" value="estende" style="edgeLabel;resizable=0;html=1;align=center;verticalAlign=middle;fontColor=#000000;labelBorderColor=default;labelBackgroundColor=#FFFFFF;" parent="88" connectable="0" vertex="1">
                    <mxGeometry relative="1" as="geometry"/>
                </mxCell>
                <mxCell id="90" value="excluir combinado" style="ellipse;whiteSpace=wrap;html=1;fontColor=#0F0F0F;strokeColor=#050505;fillColor=#FCFCFC;" parent="1" vertex="1">
                    <mxGeometry x="1450" y="340" width="140" height="50" as="geometry"/>
                </mxCell>
                <mxCell id="91" value="" style="endArrow=classic;html=1;exitX=0;exitY=0.5;exitDx=0;exitDy=0;entryX=1;entryY=0.5;entryDx=0;entryDy=0;strokeColor=#080808;" parent="1" source="90" target="85" edge="1">
                    <mxGeometry relative="1" as="geometry">
                        <mxPoint x="1393" y="100" as="sourcePoint"/>
                        <mxPoint x="1279.78" y="63" as="targetPoint"/>
                    </mxGeometry>
                </mxCell>
                <mxCell id="92" value="estende" style="edgeLabel;resizable=0;html=1;align=center;verticalAlign=middle;fontColor=#0F0F0F;labelBackgroundColor=#F5F5F5;" parent="91" connectable="0" vertex="1">
                    <mxGeometry relative="1" as="geometry"/>
                </mxCell>
                <mxCell id="94" value="" style="endArrow=classic;html=1;exitX=0;exitY=0.5;exitDx=0;exitDy=0;entryX=1;entryY=1;entryDx=0;entryDy=0;strokeColor=#030303;" parent="1" source="137" target="85" edge="1">
                    <mxGeometry relative="1" as="geometry">
                        <mxPoint x="1470" y="435" as="sourcePoint"/>
                        <mxPoint x="1202.9974746830583" y="69.99766952966348" as="targetPoint"/>
                    </mxGeometry>
                </mxCell>
                <mxCell id="95" value="estende" style="edgeLabel;resizable=0;html=1;align=center;verticalAlign=middle;fontColor=#0F0F0F;labelBackgroundColor=#FFFFFF;" parent="94" connectable="0" vertex="1">
                    <mxGeometry relative="1" as="geometry"/>
                </mxCell>
                <mxCell id="96" value="visualizar combinados" style="ellipse;whiteSpace=wrap;html=1;fontColor=#0F0F0F;strokeColor=#050505;fillColor=#FFFFFF;gradientColor=#ffffff;" parent="1" vertex="1">
                    <mxGeometry x="1450" y="-30" width="140" height="50" as="geometry"/>
                </mxCell>
                <mxCell id="97" value="" style="endArrow=classic;html=1;exitX=0;exitY=0.5;exitDx=0;exitDy=0;strokeColor=#000000;" parent="1" source="96" target="eDi8h3HDM6_jwTuCO-gS-138" edge="1">
                    <mxGeometry relative="1" as="geometry">
                        <mxPoint x="1393" y="100" as="sourcePoint"/>
                        <mxPoint x="1273" y="15" as="targetPoint"/>
                    </mxGeometry>
                </mxCell>
                <mxCell id="98" value="estende" style="edgeLabel;resizable=0;html=1;align=center;verticalAlign=middle;" parent="97" connectable="0" vertex="1">
                    <mxGeometry relative="1" as="geometry"/>
                </mxCell>
                <mxCell id="124" value="estende" style="edgeLabel;resizable=0;html=1;align=center;verticalAlign=middle;fontColor=#0F0F0F;labelBackgroundColor=#FCFCFC;" parent="97" connectable="0" vertex="1">
                    <mxGeometry relative="1" as="geometry"/>
                </mxCell>
                <mxCell id="101" value="recuperar acesso" style="ellipse;whiteSpace=wrap;html=1;fontColor=#0F0F0F;fillColor=#FCFCFC;strokeColor=#1C1C1C;" parent="1" vertex="1">
                    <mxGeometry x="1450" y="190" width="140" height="50" as="geometry"/>
                </mxCell>
                <mxCell id="102" value="realizar cadastro" style="ellipse;whiteSpace=wrap;html=1;fontColor=#0F0F0F;fillColor=#F7F7F7;strokeColor=#000000;" parent="1" vertex="1">
                    <mxGeometry x="1133" y="-40" width="140" height="50" as="geometry"/>
                </mxCell>
                <mxCell id="103" value="" style="endArrow=classic;html=1;exitX=0;exitY=0.5;exitDx=0;exitDy=0;strokeColor=#0F0F0F;entryX=1;entryY=1;entryDx=0;entryDy=0;" parent="1" source="101" target="eDi8h3HDM6_jwTuCO-gS-138" edge="1">
                    <mxGeometry relative="1" as="geometry">
                        <mxPoint x="1423" y="75" as="sourcePoint"/>
                        <mxPoint x="1262.22640626273" y="1.6740585908858066" as="targetPoint"/>
                    </mxGeometry>
                </mxCell>
                <mxCell id="104" value="estende" style="edgeLabel;resizable=0;html=1;align=center;verticalAlign=middle;" parent="103" connectable="0" vertex="1">
                    <mxGeometry relative="1" as="geometry"/>
                </mxCell>
                <mxCell id="123" value="estende" style="edgeLabel;resizable=0;html=1;align=center;verticalAlign=middle;fontColor=#0F0F0F;labelBackgroundColor=#FFFFFF;" parent="103" connectable="0" vertex="1">
                    <mxGeometry relative="1" as="geometry"/>
                </mxCell>
                <mxCell id="107" value="Combinados.net" style="text;html=1;strokeColor=none;fillColor=none;align=center;verticalAlign=middle;whiteSpace=wrap;rounded=0;fontSize=21;fontColor=#0F0F0F;" parent="1" vertex="1">
                    <mxGeometry x="1340" y="-160" width="60" height="30" as="geometry"/>
                </mxCell>
                <mxCell id="110" value="&amp;nbsp;Participar de combinado" style="ellipse;whiteSpace=wrap;html=1;fontColor=#0F0F0F;fillColor=#FAFAFA;strokeColor=#000000;" parent="1" vertex="1">
                    <mxGeometry x="1450" y="40" width="140" height="50" as="geometry"/>
                </mxCell>
                <mxCell id="111" value="" style="endArrow=classic;html=1;exitX=0;exitY=0.5;exitDx=0;exitDy=0;strokeColor=#080808;" parent="1" source="110" target="eDi8h3HDM6_jwTuCO-gS-138" edge="1">
                    <mxGeometry relative="1" as="geometry">
                        <mxPoint x="1463" y="75" as="sourcePoint"/>
                        <mxPoint x="1253.050466830914" y="32.477940798096824" as="targetPoint"/>
                    </mxGeometry>
                </mxCell>
                <mxCell id="112" value="estende" style="edgeLabel;resizable=0;html=1;align=center;verticalAlign=middle;" parent="111" connectable="0" vertex="1">
                    <mxGeometry relative="1" as="geometry"/>
                </mxCell>
                <mxCell id="125" value="estende" style="edgeLabel;resizable=0;html=1;align=center;verticalAlign=middle;fontColor=#0F0F0F;labelBackgroundColor=#FFFFFF;" parent="111" connectable="0" vertex="1">
                    <mxGeometry relative="1" as="geometry"/>
                </mxCell>
                <mxCell id="116" value="" style="endArrow=none;html=1;entryX=0;entryY=0.5;entryDx=0;entryDy=0;exitX=1;exitY=0.3333333333333333;exitDx=0;exitDy=0;exitPerimeter=0;strokeColor=#171717;" parent="1" source="82" target="85" edge="1">
                    <mxGeometry width="50" height="50" relative="1" as="geometry">
                        <mxPoint x="792.9999999999998" y="192.43119266055055" as="sourcePoint"/>
                        <mxPoint x="1143" y="25" as="targetPoint"/>
                    </mxGeometry>
                </mxCell>
                <mxCell id="126" value="inclui" style="endArrow=classic;html=1;exitX=0.5;exitY=0;exitDx=0;exitDy=0;fontColor=#141414;fillColor=#f9f7ed;strokeColor=#36393d;labelBackgroundColor=#FCFCFC;" parent="1" source="85" target="eDi8h3HDM6_jwTuCO-gS-138" edge="1">
                    <mxGeometry relative="1" as="geometry">
                        <mxPoint x="1203" y="290" as="sourcePoint"/>
                        <mxPoint x="1220" y="20" as="targetPoint"/>
                        <Array as="points"/>
                    </mxGeometry>
                </mxCell>
                <mxCell id="137" value="editar combinado" style="ellipse;whiteSpace=wrap;html=1;fontColor=#0F0F0F;fillColor=#FFFFFF;strokeColor=#000000;" parent="1" vertex="1">
                    <mxGeometry x="1450" y="410" width="140" height="50" as="geometry"/>
                </mxCell>
                <mxCell id="138" value="publicar combinado" style="ellipse;whiteSpace=wrap;html=1;fontColor=#0F0F0F;fillColor=#FCFCFC;strokeColor=#000000;" parent="1" vertex="1">
                    <mxGeometry x="1450" y="280" width="140" height="50" as="geometry"/>
                </mxCell>
                <mxCell id="e4h66-71FnqU7bP2j0QC-139" value="Cancelar cadastro" style="ellipse;whiteSpace=wrap;html=1;fontColor=#0F0F0F;fillColor=#FAFAFA;strokeColor=#000000;" parent="1" vertex="1">
                    <mxGeometry x="1450" y="120" width="140" height="50" as="geometry"/>
                </mxCell>
                <mxCell id="e4h66-71FnqU7bP2j0QC-140" value="" style="endArrow=classic;html=1;exitX=0;exitY=0.5;exitDx=0;exitDy=0;entryX=1;entryY=0.5;entryDx=0;entryDy=0;strokeColor=#080808;" parent="1" source="e4h66-71FnqU7bP2j0QC-139" target="eDi8h3HDM6_jwTuCO-gS-138" edge="1">
                    <mxGeometry relative="1" as="geometry">
                        <mxPoint x="1470" y="65" as="sourcePoint"/>
                        <mxPoint x="1263.050466830914" y="12.477940798096824" as="targetPoint"/>
                    </mxGeometry>
                </mxCell>
                <mxCell id="e4h66-71FnqU7bP2j0QC-141" value="estende" style="edgeLabel;resizable=0;html=1;align=center;verticalAlign=middle;" parent="e4h66-71FnqU7bP2j0QC-140" connectable="0" vertex="1">
                    <mxGeometry relative="1" as="geometry"/>
                </mxCell>
                <mxCell id="e4h66-71FnqU7bP2j0QC-142" value="estende" style="edgeLabel;resizable=0;html=1;align=center;verticalAlign=middle;fontColor=#0F0F0F;labelBackgroundColor=#FFFFFF;" parent="e4h66-71FnqU7bP2j0QC-140" connectable="0" vertex="1">
                    <mxGeometry relative="1" as="geometry"/>
                </mxCell>
                <mxCell id="e4h66-71FnqU7bP2j0QC-145" value="&lt;font color=&quot;#050505&quot;&gt;Usuário&lt;/font&gt;" style="text;html=1;align=center;verticalAlign=middle;resizable=0;points=[];autosize=1;strokeColor=none;fillColor=none;fontSize=11;fontFamily=Helvetica;fontColor=default;" parent="1" vertex="1">
                    <mxGeometry x="825" y="230" width="50" height="20" as="geometry"/>
                </mxCell>
                <mxCell id="eDi8h3HDM6_jwTuCO-gS-138" value="fazer login" style="ellipse;whiteSpace=wrap;html=1;fontColor=#0F0F0F;fillColor=#F7F7F7;strokeColor=#000000;" vertex="1" parent="1">
                    <mxGeometry x="1133" y="130" width="140" height="50" as="geometry"/>
                </mxCell>
                <mxCell id="eDi8h3HDM6_jwTuCO-gS-139" value="inclui" style="endArrow=classic;html=1;fontColor=#141414;fillColor=#f9f7ed;strokeColor=#36393d;labelBackgroundColor=#FCFCFC;entryX=0.5;entryY=1;entryDx=0;entryDy=0;" edge="1" parent="1" source="eDi8h3HDM6_jwTuCO-gS-138" target="102">
                    <mxGeometry relative="1" as="geometry">
                        <mxPoint x="1273" y="190" as="sourcePoint"/>
                        <mxPoint x="1273" y="50" as="targetPoint"/>
                        <Array as="points"/>
                    </mxGeometry>
                </mxCell>
                <mxCell id="eDi8h3HDM6_jwTuCO-gS-140" value="" style="endArrow=none;html=1;entryX=0;entryY=0.5;entryDx=0;entryDy=0;strokeColor=#050505;exitX=1;exitY=0.3333333333333333;exitDx=0;exitDy=0;exitPerimeter=0;" edge="1" parent="1" source="82" target="eDi8h3HDM6_jwTuCO-gS-138">
                    <mxGeometry width="50" height="50" relative="1" as="geometry">
                        <mxPoint x="894" y="161.44385026737996" as="sourcePoint"/>
                        <mxPoint x="1143.0000000000045" y="-5" as="targetPoint"/>
                    </mxGeometry>
                </mxCell>
            </root>
        </mxGraphModel>
    </diagram>
    <diagram id="uMqM1Kzkvxf-klBFFvU4" name="Página-2">
        <mxGraphModel dx="745" dy="357" grid="1" gridSize="10" guides="1" tooltips="1" connect="1" arrows="1" fold="1" page="1" pageScale="1" pageWidth="827" pageHeight="1169" math="0" shadow="0">
            <root>
                <object label="" id="SviEt6VOkgP8NWicdoSZ-0">
                    <mxCell/>
                </object>
                <mxCell id="SviEt6VOkgP8NWicdoSZ-1" parent="SviEt6VOkgP8NWicdoSZ-0"/>
                <mxCell id="X9wu30tvYe-q0dHl-FbN-11" value="Usuario" style="swimlane;fontStyle=1;align=center;verticalAlign=top;childLayout=stackLayout;horizontal=1;startSize=26;horizontalStack=0;resizeParent=1;resizeParentMax=0;resizeLast=0;collapsible=1;marginBottom=0;" parent="SviEt6VOkgP8NWicdoSZ-1" vertex="1">
                    <mxGeometry x="70" y="372" width="160" height="138" as="geometry"/>
                </mxCell>
                <mxCell id="X9wu30tvYe-q0dHl-FbN-16" value="+ id_usuario: integerField" style="text;strokeColor=none;fillColor=none;align=left;verticalAlign=top;spacingLeft=4;spacingRight=4;overflow=hidden;rotatable=0;points=[[0,0.5],[1,0.5]];portConstraint=eastwest;" parent="X9wu30tvYe-q0dHl-FbN-11" vertex="1">
                    <mxGeometry y="26" width="160" height="26" as="geometry"/>
                </mxCell>
                <mxCell id="X9wu30tvYe-q0dHl-FbN-12" value="+ email: EmailField" style="text;strokeColor=none;fillColor=none;align=left;verticalAlign=top;spacingLeft=4;spacingRight=4;overflow=hidden;rotatable=0;points=[[0,0.5],[1,0.5]];portConstraint=eastwest;" parent="X9wu30tvYe-q0dHl-FbN-11" vertex="1">
                    <mxGeometry y="52" width="160" height="26" as="geometry"/>
                </mxCell>
                <mxCell id="X9wu30tvYe-q0dHl-FbN-15" value="+ senha: CharField" style="text;strokeColor=none;fillColor=none;align=left;verticalAlign=top;spacingLeft=4;spacingRight=4;overflow=hidden;rotatable=0;points=[[0,0.5],[1,0.5]];portConstraint=eastwest;" parent="X9wu30tvYe-q0dHl-FbN-11" vertex="1">
                    <mxGeometry y="78" width="160" height="26" as="geometry"/>
                </mxCell>
                <mxCell id="X9wu30tvYe-q0dHl-FbN-13" value="" style="line;strokeWidth=1;fillColor=none;align=left;verticalAlign=middle;spacingTop=-1;spacingLeft=3;spacingRight=3;rotatable=0;labelPosition=right;points=[];portConstraint=eastwest;" parent="X9wu30tvYe-q0dHl-FbN-11" vertex="1">
                    <mxGeometry y="104" width="160" height="8" as="geometry"/>
                </mxCell>
                <mxCell id="X9wu30tvYe-q0dHl-FbN-14" value="+ method(type): type" style="text;strokeColor=none;fillColor=none;align=left;verticalAlign=top;spacingLeft=4;spacingRight=4;overflow=hidden;rotatable=0;points=[[0,0.5],[1,0.5]];portConstraint=eastwest;" parent="X9wu30tvYe-q0dHl-FbN-11" vertex="1">
                    <mxGeometry y="112" width="160" height="26" as="geometry"/>
                </mxCell>
                <mxCell id="X9wu30tvYe-q0dHl-FbN-24" value="Evento" style="swimlane;fontStyle=1;align=center;verticalAlign=top;childLayout=stackLayout;horizontal=1;startSize=26;horizontalStack=0;resizeParent=1;resizeParentMax=0;resizeLast=0;collapsible=1;marginBottom=0;" parent="SviEt6VOkgP8NWicdoSZ-1" vertex="1">
                    <mxGeometry x="390" y="528" width="160" height="164" as="geometry"/>
                </mxCell>
                <mxCell id="X9wu30tvYe-q0dHl-FbN-25" value="+ id_evento: integerField" style="text;strokeColor=none;fillColor=none;align=left;verticalAlign=top;spacingLeft=4;spacingRight=4;overflow=hidden;rotatable=0;points=[[0,0.5],[1,0.5]];portConstraint=eastwest;" parent="X9wu30tvYe-q0dHl-FbN-24" vertex="1">
                    <mxGeometry y="26" width="160" height="26" as="geometry"/>
                </mxCell>
                <mxCell id="X9wu30tvYe-q0dHl-FbN-26" value="+ tipo_evento: CharField" style="text;strokeColor=none;fillColor=none;align=left;verticalAlign=top;spacingLeft=4;spacingRight=4;overflow=hidden;rotatable=0;points=[[0,0.5],[1,0.5]];portConstraint=eastwest;" parent="X9wu30tvYe-q0dHl-FbN-24" vertex="1">
                    <mxGeometry y="52" width="160" height="26" as="geometry"/>
                </mxCell>
                <mxCell id="X9wu30tvYe-q0dHl-FbN-27" value="+ descricao: TextField" style="text;strokeColor=none;fillColor=none;align=left;verticalAlign=top;spacingLeft=4;spacingRight=4;overflow=hidden;rotatable=0;points=[[0,0.5],[1,0.5]];portConstraint=eastwest;" parent="X9wu30tvYe-q0dHl-FbN-24" vertex="1">
                    <mxGeometry y="78" width="160" height="26" as="geometry"/>
                </mxCell>
                <mxCell id="X9wu30tvYe-q0dHl-FbN-41" value="+ tarefas: Tarefa" style="text;strokeColor=none;fillColor=none;align=left;verticalAlign=top;spacingLeft=4;spacingRight=4;overflow=hidden;rotatable=0;points=[[0,0.5],[1,0.5]];portConstraint=eastwest;" parent="X9wu30tvYe-q0dHl-FbN-24" vertex="1">
                    <mxGeometry y="104" width="160" height="26" as="geometry"/>
                </mxCell>
                <mxCell id="X9wu30tvYe-q0dHl-FbN-28" value="" style="line;strokeWidth=1;fillColor=none;align=left;verticalAlign=middle;spacingTop=-1;spacingLeft=3;spacingRight=3;rotatable=0;labelPosition=right;points=[];portConstraint=eastwest;" parent="X9wu30tvYe-q0dHl-FbN-24" vertex="1">
                    <mxGeometry y="130" width="160" height="8" as="geometry"/>
                </mxCell>
                <mxCell id="X9wu30tvYe-q0dHl-FbN-29" value="+ method(type): type" style="text;strokeColor=none;fillColor=none;align=left;verticalAlign=top;spacingLeft=4;spacingRight=4;overflow=hidden;rotatable=0;points=[[0,0.5],[1,0.5]];portConstraint=eastwest;" parent="X9wu30tvYe-q0dHl-FbN-24" vertex="1">
                    <mxGeometry y="138" width="160" height="26" as="geometry"/>
                </mxCell>
                <object label="" dado="12&#10;" id="X9wu30tvYe-q0dHl-FbN-39">
                    <mxCell style="endArrow=diamondThin;endFill=0;endSize=24;html=1;rounded=1;labelBackgroundColor=default;fontFamily=Helvetica;fontSize=11;fontColor=default;strokeColor=default;shape=connector;entryX=1;entryY=0.5;entryDx=0;entryDy=0;exitX=0.5;exitY=0;exitDx=0;exitDy=0;" parent="SviEt6VOkgP8NWicdoSZ-1" source="X9wu30tvYe-q0dHl-FbN-24" target="X9wu30tvYe-q0dHl-FbN-12" edge="1">
                        <mxGeometry width="160" relative="1" as="geometry">
                            <mxPoint x="250" y="570" as="sourcePoint"/>
                            <mxPoint x="410" y="570" as="targetPoint"/>
                            <Array as="points">
                                <mxPoint x="470" y="435"/>
                            </Array>
                        </mxGeometry>
                    </mxCell>
                </object>
                <mxCell id="oYUrc7cV-9yWWMBrX2g3-3" value="&lt;font color=&quot;#ffffff&quot;&gt;1&lt;/font&gt;" style="edgeLabel;html=1;align=center;verticalAlign=middle;resizable=0;points=[];fontSize=11;fontFamily=Helvetica;fontColor=#050505;" parent="X9wu30tvYe-q0dHl-FbN-39" vertex="1" connectable="0">
                    <mxGeometry x="0.9009" relative="1" as="geometry">
                        <mxPoint x="-4" y="-16" as="offset"/>
                    </mxGeometry>
                </mxCell>
                <mxCell id="X9wu30tvYe-q0dHl-FbN-43" value="Tarefa" style="swimlane;fontStyle=1;align=center;verticalAlign=top;childLayout=stackLayout;horizontal=1;startSize=26;horizontalStack=0;resizeParent=1;resizeParentMax=0;resizeLast=0;collapsible=1;marginBottom=0;" parent="SviEt6VOkgP8NWicdoSZ-1" vertex="1">
                    <mxGeometry x="70" y="680" width="160" height="138" as="geometry"/>
                </mxCell>
                <mxCell id="X9wu30tvYe-q0dHl-FbN-44" value="+ id_tarefa: integerField" style="text;strokeColor=none;fillColor=none;align=left;verticalAlign=top;spacingLeft=4;spacingRight=4;overflow=hidden;rotatable=0;points=[[0,0.5],[1,0.5]];portConstraint=eastwest;" parent="X9wu30tvYe-q0dHl-FbN-43" vertex="1">
                    <mxGeometry y="26" width="160" height="26" as="geometry"/>
                </mxCell>
                <mxCell id="X9wu30tvYe-q0dHl-FbN-46" value="+ descricao: TextField" style="text;strokeColor=none;fillColor=none;align=left;verticalAlign=top;spacingLeft=4;spacingRight=4;overflow=hidden;rotatable=0;points=[[0,0.5],[1,0.5]];portConstraint=eastwest;" parent="X9wu30tvYe-q0dHl-FbN-43" vertex="1">
                    <mxGeometry y="52" width="160" height="26" as="geometry"/>
                </mxCell>
                <mxCell id="X9wu30tvYe-q0dHl-FbN-47" value="+ responsavel: Usuario" style="text;strokeColor=none;fillColor=none;align=left;verticalAlign=top;spacingLeft=4;spacingRight=4;overflow=hidden;rotatable=0;points=[[0,0.5],[1,0.5]];portConstraint=eastwest;" parent="X9wu30tvYe-q0dHl-FbN-43" vertex="1">
                    <mxGeometry y="78" width="160" height="26" as="geometry"/>
                </mxCell>
                <mxCell id="X9wu30tvYe-q0dHl-FbN-49" value="" style="line;strokeWidth=1;fillColor=none;align=left;verticalAlign=middle;spacingTop=-1;spacingLeft=3;spacingRight=3;rotatable=0;labelPosition=right;points=[];portConstraint=eastwest;" parent="X9wu30tvYe-q0dHl-FbN-43" vertex="1">
                    <mxGeometry y="104" width="160" height="8" as="geometry"/>
                </mxCell>
                <mxCell id="X9wu30tvYe-q0dHl-FbN-50" value="+ method(type): type" style="text;strokeColor=none;fillColor=none;align=left;verticalAlign=top;spacingLeft=4;spacingRight=4;overflow=hidden;rotatable=0;points=[[0,0.5],[1,0.5]];portConstraint=eastwest;" parent="X9wu30tvYe-q0dHl-FbN-43" vertex="1">
                    <mxGeometry y="112" width="160" height="26" as="geometry"/>
                </mxCell>
                <mxCell id="X9wu30tvYe-q0dHl-FbN-51" value="" style="endArrow=diamondThin;endFill=1;endSize=24;html=1;rounded=1;labelBackgroundColor=default;fontFamily=Helvetica;fontSize=11;fontColor=default;strokeColor=default;shape=connector;exitX=1.013;exitY=1.154;exitDx=0;exitDy=0;entryX=0.556;entryY=1.077;entryDx=0;entryDy=0;entryPerimeter=0;exitPerimeter=0;" parent="SviEt6VOkgP8NWicdoSZ-1" source="X9wu30tvYe-q0dHl-FbN-46" target="X9wu30tvYe-q0dHl-FbN-29" edge="1">
                    <mxGeometry width="160" relative="1" as="geometry">
                        <mxPoint x="250" y="670" as="sourcePoint"/>
                        <mxPoint x="410" y="670" as="targetPoint"/>
                        <Array as="points">
                            <mxPoint x="479" y="761"/>
                        </Array>
                    </mxGeometry>
                </mxCell>
                <mxCell id="oYUrc7cV-9yWWMBrX2g3-4" value="0..n" style="text;html=1;align=center;verticalAlign=middle;resizable=0;points=[];autosize=1;strokeColor=none;fillColor=none;fontSize=11;fontFamily=Helvetica;fontColor=#FFFFFF;" parent="SviEt6VOkgP8NWicdoSZ-1" vertex="1">
                    <mxGeometry x="472" y="510" width="30" height="20" as="geometry"/>
                </mxCell>
                <mxCell id="oYUrc7cV-9yWWMBrX2g3-5" value="&lt;font color=&quot;#ffffff&quot;&gt;1&lt;/font&gt;" style="edgeLabel;html=1;align=center;verticalAlign=middle;resizable=0;points=[];fontSize=11;fontFamily=Helvetica;fontColor=#050505;" parent="SviEt6VOkgP8NWicdoSZ-1" vertex="1" connectable="0">
                    <mxGeometry x="260" y="530" as="geometry">
                        <mxPoint x="235" y="201" as="offset"/>
                    </mxGeometry>
                </mxCell>
                <mxCell id="oYUrc7cV-9yWWMBrX2g3-6" value="1..n" style="text;html=1;align=center;verticalAlign=middle;resizable=0;points=[];autosize=1;strokeColor=none;fillColor=none;fontSize=11;fontFamily=Helvetica;fontColor=#FFFFFF;" parent="SviEt6VOkgP8NWicdoSZ-1" vertex="1">
                    <mxGeometry x="240" y="770" width="30" height="20" as="geometry"/>
                </mxCell>
                <mxCell id="oYUrc7cV-9yWWMBrX2g3-7" value="Cria" style="text;html=1;align=center;verticalAlign=middle;resizable=0;points=[];autosize=1;strokeColor=none;fillColor=none;fontSize=11;fontFamily=Helvetica;fontColor=#FFFFFF;" parent="SviEt6VOkgP8NWicdoSZ-1" vertex="1">
                    <mxGeometry x="380" y="410" width="40" height="20" as="geometry"/>
                </mxCell>
                <mxCell id="oYUrc7cV-9yWWMBrX2g3-8" value="Contém" style="text;html=1;align=center;verticalAlign=middle;resizable=0;points=[];autosize=1;strokeColor=none;fillColor=none;fontSize=11;fontFamily=Helvetica;fontColor=#FFFFFF;" parent="SviEt6VOkgP8NWicdoSZ-1" vertex="1">
                    <mxGeometry x="364" y="770" width="50" height="20" as="geometry"/>
                </mxCell>
                <mxCell id="oYUrc7cV-9yWWMBrX2g3-18" value="" style="endArrow=block;startArrow=block;endFill=1;startFill=1;html=1;rounded=1;labelBackgroundColor=default;fontFamily=Helvetica;fontSize=11;fontColor=#FFFFFF;strokeColor=default;shape=connector;exitX=0.525;exitY=1.038;exitDx=0;exitDy=0;exitPerimeter=0;" parent="SviEt6VOkgP8NWicdoSZ-1" source="X9wu30tvYe-q0dHl-FbN-14" target="X9wu30tvYe-q0dHl-FbN-43" edge="1">
                    <mxGeometry width="160" relative="1" as="geometry">
                        <mxPoint x="250" y="670" as="sourcePoint"/>
                        <mxPoint x="410" y="670" as="targetPoint"/>
                    </mxGeometry>
                </mxCell>
                <mxCell id="oYUrc7cV-9yWWMBrX2g3-19" value="1...n" style="text;html=1;align=center;verticalAlign=middle;resizable=0;points=[];autosize=1;strokeColor=none;fillColor=none;fontSize=11;fontFamily=Helvetica;fontColor=#FFFFFF;" parent="SviEt6VOkgP8NWicdoSZ-1" vertex="1">
                    <mxGeometry x="160" y="520" width="40" height="20" as="geometry"/>
                </mxCell>
                <mxCell id="oYUrc7cV-9yWWMBrX2g3-20" value="0...n" style="text;html=1;align=center;verticalAlign=middle;resizable=0;points=[];autosize=1;strokeColor=none;fillColor=none;fontSize=11;fontFamily=Helvetica;fontColor=#FFFFFF;" parent="SviEt6VOkgP8NWicdoSZ-1" vertex="1">
                    <mxGeometry x="160" y="650" width="40" height="20" as="geometry"/>
                </mxCell>
                <mxCell id="oYUrc7cV-9yWWMBrX2g3-21" value="possui" style="text;html=1;align=center;verticalAlign=middle;resizable=0;points=[];autosize=1;strokeColor=none;fillColor=none;fontSize=11;fontFamily=Helvetica;fontColor=#FFFFFF;" parent="SviEt6VOkgP8NWicdoSZ-1" vertex="1">
                    <mxGeometry x="155" y="582" width="50" height="20" as="geometry"/>
                </mxCell>
            </root>
        </mxGraphModel>
    </diagram>
</mxfile>